{"title":"The.Great.Escape.1963.BRRip.x264.AC3-PsiX","uid":8580405,"size":2446413647,"categoryP":"video","categoryS":"movies_dvdr","magnet":"?xt=urn:btih:edbc6358bc095ea06949e51cbfa2c5dc7f6f173f&amp;dn=The.Great.Escape.1963.BRRip.x264.AC3-PsiX&amp;tr=udp%3A%2F%2Ftracker.openbittorrent.com%3A80&amp;tr=udp%3A%2F%2Fopen.demonii.com%3A1337&amp;tr=udp%3A%2F%2Ftracker.coppersurfer.tk%3A6969&amp;tr=udp%3A%2F%2Fexodus.desync.com%3A6969","seeders":1,"leechers":0,"uploader":"sakhslitsa","files":2,"time":1371401154,"description":"The.Great.Escape.1963.BRRip.x264.AC3-PsiX\n &lt;a href=&quot;\nhttp://s17.postimg.org/t60kn5o8f/image.jpg&quot; rel=&quot;nofollow&quot; target=&quot;_NEW&quot;&gt;\nhttp://s17.postimg.org/t60kn5o8f/image.jpg&lt;/a&gt;\n\nAllied POWs plan for several hundred of their number to escape\nfrom a German camp during World War II.\n\n\nDirector:\nJohn Sturges\nWriters:\nPaul Brickhill (book), James Clavell (screenplay)\nStars:\nSteve McQueen, James Garner, Richard Attenborough\n\n \n &lt;a href=&quot;\nhttp://s17.postimg.org/7ywtz5blb/image.png&quot; rel=&quot;nofollow&quot; target=&quot;_NEW&quot;&gt;\nhttp://s17.postimg.org/7ywtz5blb/image.png&lt;/a&gt;\n &lt;a href=&quot;\nhttp://s17.postimg.org/8ppk4xdyn/image.png&quot; rel=&quot;nofollow&quot; target=&quot;_NEW&quot;&gt;\nhttp://s17.postimg.org/8ppk4xdyn/image.png&lt;/a&gt;\n &lt;a href=&quot;\nhttp://s17.postimg.org/453dpzu9b/image.png&quot; rel=&quot;nofollow&quot; target=&quot;_NEW&quot;&gt;\nhttp://s17.postimg.org/453dpzu9b/image.png&lt;/a&gt;\n\n\n\n\nThe.Great.Escape.1963.BRRip.x264.AC3-PsiX.mkv\n\nFormat : Matroska\nFormat version : Version 2\nFile size : 2.28 GiB\nDuration : 2h 52mn\nOverall bit rate : 1 894 Kbps\nEncoded date : UTC 2013-05-19 18:03:14\nWriting application : mkvmerge v6.1.0 ('Old Devil') built on Mar 2 2013 14:32:37\nWriting library : libebml v1.3.0 + libmatroska v1.4.0\n\nVideo\nID : 1\nFormat : AVC\nFormat/Info : Advanced Video Codec\nFormat profile : &lt;a class=&quot;__cf_email__&quot; href=&quot;/cdn-cgi/l/email-protection&quot; data-cfemail=&quot;baf2d3ddd2faf68e948b&quot;&gt;[email&amp;#160;protected]&lt;/a&gt;&lt;script cf-hash='f9e31' type=&quot;text/javascript&quot;&gt;\n/* &lt;![CDATA[ */!function(){try{var t=&quot;currentScript&quot;in document?document.currentScript:function(){for(var t=document.getElementsByTagName(&quot;script&quot;),e=t.length;e--;)if(t[e].getAttribute(&quot;cf-hash&quot;))return t[e]}();if(t&amp;&amp;t.previousSibling){var e,r,n,i,c=t.previousSibling,a=c.getAttribute(&quot;data-cfemail&quot;);if(a){for(e=&quot;&quot;,r=parseInt(a.substr(0,2),16),n=2;a.length-n;n+=2)i=parseInt(a.substr(n,2),16)^r,e+=String.fromCharCode(i);e=document.createTextNode(e),c.parentNode.replaceChild(e,c)}}}catch(u){}}();/* ]]&gt; */&lt;/script&gt;\nFormat settings, CABAC : Yes\nFormat settings, ReFrames : 8 frames\nCodec ID : V_MPEG4/ISO/AVC\nDuration : 2h 52mn\nBit rate : 1 444 Kbps\nWidth : 720 pixels\nHeight : 304 pixels\nDisplay aspect ratio : 2.35:1\nFrame rate mode : Constant\nFrame rate : 23.976 fps\nColor space : YUV\nChroma subsampling : 4:2:0\nBit depth : 8 bits\nScan type : Progressive\nBits/(Pixel*Frame) : 0.275\nStream size : 1.69 GiB (74%)\nWriting library : x264 core 130 r2273 b3065e6\n\n\nAudio\nID : 2\nFormat : AC-3\nFormat/Info : Audio Coding 3\nMode extension : CM (complete main)\nFormat settings, Endianness : Big\nCodec ID : A_AC3\nDuration : 2h 52mn\nBit rate mode : Constant\nBit rate : 448 Kbps\nChannel(s) : 6 channels\nChannel positions : Front: L C R, Side: L R, LFE\nSampling rate : 48.0 KHz\nBit depth : 16 bits\nCompression mode : Lossy\nStream size : 552 MiB (24%)\nLanguage : English\nDefault : Yes\nForced : No\n\n\n\n\n\nEncoded............: PsiX\nSource.............: 1080p-HD4U\nSubs..........No","torrent":{"xt":"urn:btih:edbc6358bc095ea06949e51cbfa2c5dc7f6f173f","amp;dn":"The.Great.Escape.1963.BRRip.x264.AC3-PsiX","amp;tr":["udp%3A%2F%2Ftracker.openbittorrent.com%3A80","udp%3A%2F%2Fopen.demonii.com%3A1337","udp%3A%2F%2Ftracker.coppersurfer.tk%3A6969","udp%3A%2F%2Fexodus.desync.com%3A6969"],"infoHash":"edbc6358bc095ea06949e51cbfa2c5dc7f6f173f","infoHashBuffer":{"type":"Buffer","data":[237,188,99,88,188,9,94,160,105,73,229,28,191,162,197,220,127,111,23,63]},"announce":[],"urlList":[]}}